# xmcd
#
# Track frame offsets:
#	150
#	19797
#	35922
#	55245
#	68030
#	88082
#	102925
#	120410
#	133369
#	152090
#	164427
#	183726
#	194911
#
# Disc length: 2656 seconds
#
# Revision: 2
# Processed by: cddbd v1.5.2PL0 Copyright (c) Steve Scherf et al.
# Submitted via: audiograbber 1.83.01
#
DISCID=c10a5e0d
DTITLE=אוהד חיטמן - הרגע הבא
DYEAR=2008
DGENRE=
TTITLE0=צעד אין חזור (מתוך האפלה)
TTITLE1=סתם עוד יום
TTITLE2=(שוב) שלכת
TTITLE3=לכבודך
TTITLE4=אלוהים, אל תנסה אותי
TTITLE5=חשבתי שיהיה רומנטי
TTITLE6=האישה של חייו
TTITLE7=עושה לה קרוסלה
TTITLE8=בא לי בקצב
TTITLE9=הרגע הבא
TTITLE10=נקודת ההתחלה
TTITLE11=אי אפשר
TTITLE12=לתאר
EXTD=
EXTT0=
EXTT1=
EXTT2=
EXTT3=
EXTT4=
EXTT5=
EXTT6=
EXTT7=
EXTT8=
EXTT9=
EXTT10=
EXTT11=
EXTT12=
PLAYORDER=
